# xmcd
#
# Track frame offsets:
#	182
#	13075
#	25787
#	48487
#	66475
#	81037
#	93987
#	108162
#	123700
#	136962
#	156937
#	169625
#	192375
#	202400
#	211200
#
# Disc length: 2856 seconds
#
# Revision: 1
# Processed by: cddbd v1.4PL0 Copyright (c) Steve Scherf et al.
# Submitted via: audiograbber 1.80.04
#
DISCID=d60b260f
DTITLE=Blues de Rostoll - Dlues d'aquí i d'allà
DYEAR=1900
DGENRE=
TTITLE0=Blues de la incertesa
TTITLE1=Ningú no haurà guanyat
TTITLE2=Congo Square
TTITLE3=Mots encreuats
TTITLE4=Avorrit
TTITLE5=Un cuc misteriós
TTITLE6=Sal, sofre, pols i sorra
TTITLE7=Sant Dalmai
TTITLE8=Fart
TTITLE9=Com el Whisky fon el gel
TTITLE10=Sexe i Blues
TTITLE11=Mustard Sally
TTITLE12=Long tall Mama
TTITLE13=Two days With Charlie
TTITLE14=Doc's Guitar
EXTD=
EXTT0=
EXTT1=
EXTT2=
EXTT3=
EXTT4=
EXTT5=
EXTT6=
EXTT7=
EXTT8=
EXTT9=
EXTT10=
EXTT11=
EXTT12=
EXTT13=
EXTT14=
PLAYORDER=
